<mxfile host="app.diagrams.net" agent="Mozilla/5.0 (Windows NT 10.0; Win64; x64) AppleWebKit/537.36 (KHTML, like Gecko) Chrome/127.0.0.0 Safari/537.36" version="24.7.8">
  <diagram name="Page-1" id="59JnaVbpp51XQgLq3hQx">
    <mxGraphModel dx="1050" dy="603" grid="1" gridSize="10" guides="1" tooltips="1" connect="1" arrows="1" fold="1" page="1" pageScale="1" pageWidth="827" pageHeight="1169" math="0" shadow="0">
      <root>
        <mxCell id="0" />
        <mxCell id="1" parent="0" />
        <mxCell id="DDTzbtTB0viqOzbG85x1-4" style="edgeStyle=orthogonalEdgeStyle;rounded=0;orthogonalLoop=1;jettySize=auto;html=1;" edge="1" parent="1" source="DDTzbtTB0viqOzbG85x1-1">
          <mxGeometry relative="1" as="geometry">
            <mxPoint x="155" y="280" as="targetPoint" />
          </mxGeometry>
        </mxCell>
        <mxCell id="DDTzbtTB0viqOzbG85x1-1" value="" style="verticalLabelPosition=bottom;html=1;verticalAlign=top;align=center;strokeColor=none;fillColor=#00BEF2;shape=mxgraph.azure.git_repository;" vertex="1" parent="1">
          <mxGeometry x="130.25" y="330" width="50" height="50" as="geometry" />
        </mxCell>
        <mxCell id="DDTzbtTB0viqOzbG85x1-3" style="edgeStyle=orthogonalEdgeStyle;rounded=0;orthogonalLoop=1;jettySize=auto;html=1;" edge="1" parent="1" source="DDTzbtTB0viqOzbG85x1-2">
          <mxGeometry relative="1" as="geometry">
            <mxPoint x="155" y="380" as="targetPoint" />
          </mxGeometry>
        </mxCell>
        <mxCell id="DDTzbtTB0viqOzbG85x1-2" value="" style="image;aspect=fixed;perimeter=ellipsePerimeter;html=1;align=center;shadow=0;dashed=0;spacingTop=3;image=img/lib/active_directory/user.svg;" vertex="1" parent="1">
          <mxGeometry x="146" y="420" width="18.5" height="50" as="geometry" />
        </mxCell>
        <mxCell id="DDTzbtTB0viqOzbG85x1-20" style="edgeStyle=orthogonalEdgeStyle;rounded=0;orthogonalLoop=1;jettySize=auto;html=1;" edge="1" parent="1" source="DDTzbtTB0viqOzbG85x1-5">
          <mxGeometry relative="1" as="geometry">
            <mxPoint x="320" y="237.5" as="targetPoint" />
          </mxGeometry>
        </mxCell>
        <mxCell id="DDTzbtTB0viqOzbG85x1-5" value="" style="dashed=0;outlineConnect=0;html=1;align=center;labelPosition=center;verticalLabelPosition=bottom;verticalAlign=top;shape=mxgraph.weblogos.github" vertex="1" parent="1">
          <mxGeometry x="117.75" y="200" width="75" height="75" as="geometry" />
        </mxCell>
        <mxCell id="DDTzbtTB0viqOzbG85x1-9" value="" style="shape=flexArrow;endArrow=classic;html=1;rounded=0;" edge="1" parent="1">
          <mxGeometry width="50" height="50" relative="1" as="geometry">
            <mxPoint x="164.5" y="180" as="sourcePoint" />
            <mxPoint x="214.5" y="130" as="targetPoint" />
          </mxGeometry>
        </mxCell>
        <mxCell id="DDTzbtTB0viqOzbG85x1-11" style="edgeStyle=orthogonalEdgeStyle;rounded=0;orthogonalLoop=1;jettySize=auto;html=1;" edge="1" parent="1" source="DDTzbtTB0viqOzbG85x1-10">
          <mxGeometry relative="1" as="geometry">
            <mxPoint x="590" y="97.5" as="targetPoint" />
          </mxGeometry>
        </mxCell>
        <mxCell id="DDTzbtTB0viqOzbG85x1-10" value="" style="shape=image;verticalLabelPosition=bottom;verticalAlign=top;imageAspect=0;aspect=fixed;image=data:image/jpeg,/9j/4AAQSkZJRgABAQEAYABgAAD/2wBDAAMCAgMCAgMDAwMEAwMEBQgFBQQEBQoHBwYIDAoMDAsKCwsNDhIQDQ4RDgsLEBYQERMUFRUVDA8XGBYUGBIUFRT/2wBDAQMEBAUEBQkFBQkUDQsNFBQUFBQUFBQUFBQUFBQUFBQUFBQUFBQUFBQUFBQUFBQUFBQUFBQUFBQUFBQUFBQUFBT/wAARCABLAEcDASIAAhEBAxEB/8QAHwAAAQUBAQEBAQEAAAAAAAAAAAECAwQFBgcICQoL/8QAtRAAAgEDAwIEAwUFBAQAAAF9AQIDAAQRBRIhMUEGE1FhByJxFDKBkaEII0KxwRVS0fAkM2JyggkKFhcYGRolJicoKSo0NTY3ODk6Q0RFRkdISUpTVFVWV1hZWmNkZWZnaGlqc3R1dnd4eXqDhIWGh4iJipKTlJWWl5iZmqKjpKWmp6ipqrKztLW2t7i5usLDxMXGx8jJytLT1NXW19jZ2uHi4+Tl5ufo6erx8vP09fb3+Pn6/8QAHwEAAwEBAQEBAQEBAQAAAAAAAAECAwQFBgcICQoL/8QAtREAAgECBAQDBAcFBAQAAQJ3AAECAxEEBSExBhJBUQdhcRMiMoEIFEKRobHBCSMzUvAVYnLRChYkNOEl8RcYGRomJygpKjU2Nzg5OkNERUZHSElKU1RVVldYWVpjZGVmZ2hpanN0dXZ3eHl6goOEhYaHiImKkpOUlZaXmJmaoqOkpaanqKmqsrO0tba3uLm6wsPExcbHyMnK0tPU1dbX2Nna4uPk5ebn6Onq8vP09fb3+Pn6/9oADAMBAAIRAxEAPwD9USorG8WapJonhvVr+EB5bW1knRWzglVJGcduK2j0rmviIf8AihPEf/YPuP8A0W1XTSlUimHS54f8Hf2zPDnjpoNO8QKnh7WHwoMrf6PKf9l+x9jX0Xb3MdxCskbK6MMqynINfjaqnABxgg5zX0b8A/j/AOIvhx4F8QXUs0ut2GnzW6x2d1IWEauSGCN26fT2r9FzjhVUKUcRhHpK2nmzmhW5nZn6Grj6UteTfCX9o7wl8W4EisbtbLVQuZNOumCyj6f3h7ivTri+htIHnmdYokGWdzhQPUmvzyth6tGp7OrFpnRe+pb4o2ivlP4y/t3+GPBeoLo3hNU8S6u0qxPOrYtYSWAOW/iPstfUOj3T32l2dzIAHmhSRgvTJUE1VTDVqMYzqxtzbCUk9i5tFFLRWBQVUv7GHULae3nQSwzI0ckbdGUjBB/CrdNxR1A+NfjJ+wzFM0+p+ApvIfJZtJuT8h/3HPQ+x/OvAbfwtq3hH4c+O9O1nT5tPvYprQNDOhB+83PoR71+o+zrXiH7WmoaXonwpubrVNIj1a0e5iilhLmN9pJ+ZWHRh1GeK+0y7P8AGSdPCVffV1bvozGVNWbPzat7mW0uIrm3mkgnQ7kkjYqykdwR0/CvQ/2gPi14w1b4f/D/AEy68Q3slleaXJNcxbwv2h1lKguQMtgDoTio7z4aWfii1k1DwPqDaqijdLo9yAl/D9F6SAeq1W+I3w/8ReNrP4X6Nomj3moai2kzI0McLZj/ANIPL9lGe5xX6BmeIweIq0ajik4vW+606nHFSs0jxHScf2lZY6faI/8A0IV+3XhnP/CO6YT/AM+sX/oAr45+BX/BPmy0VrXWPiDcrqF6pEi6VauRCh6je3ViPQYHvX2raQJa28cKKEjjUKqjsAMAV+ccQZhQx1WKobROihCUV7xKOlFLRXyR1BRRRQAV88/txD/iyVz/ANfcP8zX0NXKfEL4f6R8TPDtzoWuW5uLGb5sK5Uqw6MCO4rtwVaOHxMKstk0yZXasj8lLW8nsriO4tppbeeM5jlhco6n1BHINfpp+y/q134m+DugarqUgutSeNke6ZFDsobgEgc18pfGD9jHxH4H87UPDRbxDpC/MYkXFzCvuufmA9R+VfU37IsTw/AnQI3Ro3XzAVYEEHceDmvv+J8fhMwwdOrh2r3177HPRi4t3PZdppy0L93ninV+ZHUFFFFMDxvVP2ltC0XWrzTb3StXiuIQxTbZsyyhepUgdOetUbD9qrQLrzXl0jVrRIUDP59vh8ltuFTOW9cjjFeH/tRa78b/AIV+OPCSaR8S9NXSvF+vf2Za2kmgozWCFcgly/z4+grpfBH7YXhjwHef8In438WXni7U7fVP7MuPFVp4fkt9NjuXbCQM67lBzxnNAH0T4B+KGlfEZtQXTI7mNrGQRzLdQmNgSM4wa7EZwc85r5wvP24PhPovjDxT4X+23n9t+H3nfUYLewkIAjUM8m4DBHI5zzTrX9ur4ea14Uj8Q+H7TxF4o02ScWyvo+jzzHfsDtwF6AHBPTPFAH0Sdo4IGO1MhgjhGyNFRc5wq4Ga+H/2ov24rHUP2b0174a6jq9jqWpatHpb3cenN52nkOBKrqy/I+Pugjk9K67wf+1n4Q+D3gTwxo+u6t4y8ZeI9QtXv/JutHkfUlhB+aSWJEGxB2zzijXoB9djpS184at+3p8I9D8P+Gtbudanaw8QJKbJ4bSR2Z4zhoSoGVkzxgisfxX/AMFGPhH4TvtSsLqfWp9Q0yQJe29tpUztAu0Nvc7cBcEdTSQH1PRXzX4N/b7+FHjjxlp/h/Tb7UQ+oRSS2t9dafLDbTbE3sFkYDJAB6elFMCP9sD4b+I/H/iT4Oz6BpM+pw6P4nW8v3hwfIh2Y3nnpXyzo/7M/iLSPFXiPw14u8IfEjV9NvPFDalbSeHr6BdKljaYOkrq56r1Pfjiv06cDcKGUZoA+F/DvwD8Y6boP7VEbeGp0uvFF2/9hsyKZLyLyVUbWznGR0NT+OvCXxe8D/BT4JaD4Msdd0qxtIlh8UWvheG2/tBAI/lCiQFR83UivuLaOaTAoA/M/R/2c/ihP+zV4y0O68Maw+uah47s9Xhg1JojdS2yyBmlcodmQOuK9s+Jmi+O/hj+0lB8QNJ+H2reN9D1HwsmjSJo7xme2nXpuV2Hyn1r7H2j0puBuoA/Oz9n39l7x94P8ZfB7UfEXhfZBaanq+rXyNtlGn/aHLRK5ycOPbpXW2fwN8bR+G/2q4H8O3P2jxXfM+irhd17H5QGV56Zr7nwN1AUY6UAfCHxL+BfjfVtJ/Z4isPDdzO/h3TbiHVFjCj7KzWrIobn+9xRX3eQMUUAf//Z" vertex="1" parent="1">
          <mxGeometry x="220" y="60" width="71" height="75" as="geometry" />
        </mxCell>
        <mxCell id="DDTzbtTB0viqOzbG85x1-12" value="" style="sketch=0;points=[[0,0,0],[0.25,0,0],[0.5,0,0],[0.75,0,0],[1,0,0],[0,1,0],[0.25,1,0],[0.5,1,0],[0.75,1,0],[1,1,0],[0,0.25,0],[0,0.5,0],[0,0.75,0],[1,0.25,0],[1,0.5,0],[1,0.75,0]];outlineConnect=0;fontColor=#232F3E;fillColor=#ED7100;strokeColor=#ffffff;dashed=0;verticalLabelPosition=bottom;verticalAlign=top;align=center;html=1;fontSize=12;fontStyle=0;aspect=fixed;shape=mxgraph.aws4.resourceIcon;resIcon=mxgraph.aws4.auto_scaling2;" vertex="1" parent="1">
          <mxGeometry x="420" y="40" width="48" height="48" as="geometry" />
        </mxCell>
        <mxCell id="DDTzbtTB0viqOzbG85x1-13" value="Amazon EC2" style="sketch=0;outlineConnect=0;fontColor=#232F3E;gradientColor=none;strokeColor=#ffffff;fillColor=#232F3E;dashed=0;verticalLabelPosition=middle;verticalAlign=bottom;align=center;html=1;whiteSpace=wrap;fontSize=10;fontStyle=1;spacing=3;shape=mxgraph.aws4.productIcon;prIcon=mxgraph.aws4.ec2;" vertex="1" parent="1">
          <mxGeometry x="350" y="40" width="50" height="24" as="geometry" />
        </mxCell>
        <mxCell id="DDTzbtTB0viqOzbG85x1-16" value="" style="swimlane;startSize=0;" vertex="1" parent="1">
          <mxGeometry x="550" y="30" width="200" height="400" as="geometry" />
        </mxCell>
        <mxCell id="DDTzbtTB0viqOzbG85x1-15" value="Amazon EKS" style="sketch=0;outlineConnect=0;fontColor=#232F3E;gradientColor=none;strokeColor=#ffffff;fillColor=#232F3E;dashed=0;verticalLabelPosition=middle;verticalAlign=bottom;align=center;html=1;whiteSpace=wrap;fontSize=10;fontStyle=1;spacing=3;shape=mxgraph.aws4.productIcon;prIcon=mxgraph.aws4.eks;" vertex="1" parent="DDTzbtTB0viqOzbG85x1-16">
          <mxGeometry x="60" y="17.5" width="80" height="100" as="geometry" />
        </mxCell>
        <mxCell id="DDTzbtTB0viqOzbG85x1-17" value="" style="aspect=fixed;sketch=0;html=1;dashed=0;whitespace=wrap;verticalLabelPosition=bottom;verticalAlign=top;fillColor=#2875E2;strokeColor=#ffffff;points=[[0.005,0.63,0],[0.1,0.2,0],[0.9,0.2,0],[0.5,0,0],[0.995,0.63,0],[0.72,0.99,0],[0.5,1,0],[0.28,0.99,0]];shape=mxgraph.kubernetes.icon2;kubernetesLabel=1;prIcon=node" vertex="1" parent="DDTzbtTB0viqOzbG85x1-16">
          <mxGeometry x="30" y="260" width="70.83" height="68" as="geometry" />
        </mxCell>
        <mxCell id="DDTzbtTB0viqOzbG85x1-18" value="" style="aspect=fixed;sketch=0;html=1;dashed=0;whitespace=wrap;verticalLabelPosition=bottom;verticalAlign=top;fillColor=#2875E2;strokeColor=#ffffff;points=[[0.005,0.63,0],[0.1,0.2,0],[0.9,0.2,0],[0.5,0,0],[0.995,0.63,0],[0.72,0.99,0],[0.5,1,0],[0.28,0.99,0]];shape=mxgraph.kubernetes.icon2;prIcon=node" vertex="1" parent="DDTzbtTB0viqOzbG85x1-16">
          <mxGeometry x="120" y="260" width="70.83" height="68" as="geometry" />
        </mxCell>
        <mxCell id="DDTzbtTB0viqOzbG85x1-19" value="" style="aspect=fixed;sketch=0;html=1;dashed=0;whitespace=wrap;verticalLabelPosition=bottom;verticalAlign=top;fillColor=#2875E2;strokeColor=#ffffff;points=[[0.005,0.63,0],[0.1,0.2,0],[0.9,0.2,0],[0.5,0,0],[0.995,0.63,0],[0.72,0.99,0],[0.5,1,0],[0.28,0.99,0]];shape=mxgraph.kubernetes.icon2;prIcon=node" vertex="1" parent="DDTzbtTB0viqOzbG85x1-16">
          <mxGeometry x="69.79" y="150" width="60.42" height="58" as="geometry" />
        </mxCell>
        <mxCell id="DDTzbtTB0viqOzbG85x1-22" style="edgeStyle=orthogonalEdgeStyle;rounded=0;orthogonalLoop=1;jettySize=auto;html=1;" edge="1" parent="1" source="DDTzbtTB0viqOzbG85x1-21">
          <mxGeometry relative="1" as="geometry">
            <mxPoint x="540" y="237.5" as="targetPoint" />
          </mxGeometry>
        </mxCell>
        <mxCell id="DDTzbtTB0viqOzbG85x1-21" value="" style="shape=image;verticalLabelPosition=bottom;verticalAlign=top;imageAspect=0;aspect=fixed;image=data:image/jpeg,/9j/4AAQSkZJRgABAQEASABIAAD/4QJmRXhpZgAATU0AKgAAAAgAAodpAAQAAAABAAABMuocAAcAAAEMAAAAJgAAAAAc6gAAAAEAAAAAAAAAAAAAAAAAAAAAAAAAAAAAAAAAAAAAAAAAAAAAAAAAAAAAAAAAAAAAAAAAAAAAAAAAAAAAAAAAAAAAAAAAAAAAAAAAAAAAAAAAAAAAAAAAAAAAAAAAAAAAAAAAAAAAAAAAAAAAAAAAAAAAAAAAAAAAAAAAAAAAAAAAAAAAAAAAAAAAAAAAAAAAAAAAAAAAAAAAAAAAAAAAAAAAAAAAAAAAAAAAAAAAAAAAAAAAAAAAAAAAAAAAAAAAAAAAAAAAAAAAAAAAAAAAAAAAAAAAAAAAAAAAAAAAAAAAAAAAAAAAAAAAAAAAAAAAAAAAAAAAAAAAAAAAAAAAAAAAAAAAAAAAAAKQAAAHAAAABDAyMTDqHAAHAAABDAAAAVAAAAAAHOoAAAABAAAAAAAAAAAAAAAAAAAAAAAAAAAAAAAAAAAAAAAAAAAAAAAAAAAAAAAAAAAAAAAAAAAAAAAAAAAAAAAAAAAAAAAAAAAAAAAAAAAAAAAAAAAAAAAAAAAAAAAAAAAAAAAAAAAAAAAAAAAAAAAAAAAAAAAAAAAAAAAAAAAAAAAAAAAAAAAAAAAAAAAAAAAAAAAAAAAAAAAAAAAAAAAAAAAAAAAAAAAAAAAAAAAAAAAAAAAAAAAAAAAAAAAAAAAAAAAAAAAAAAAAAAAAAAAAAAAAAAAAAAAAAAAAAAAAAAAAAAAAAAAAAAAAAAAAAAAAAAAAAAAAAAAAAAAAAAAAAAAAAAAAAAAAAAAA/+EB3Wh0dHA6Ly9ucy5hZG9iZS5jb20veGFwLzEuMC8APD94cGFja2V0IGJlZ2luPSfvu78nIGlkPSdXNU0wTXBDZWhpSHpyZVN6TlRjemtjOWQnPz4NCjx4OnhtcG1ldGEgeG1sbnM6eD0iYWRvYmU6bnM6bWV0YS8iPjxyZGY6UkRGIHhtbG5zOnJkZj0iaHR0cDovL3d3dy53My5vcmcvMTk5OS8wMi8yMi1yZGYtc3ludGF4LW5zIyIvPjwveDp4bXBtZXRhPg0KICAgICAgICAgICAgICAgICAgICAgICAgICAgICAgICAgICAgICAgICAgICAgICAgICAgICAgICAgICAgICAgICAgICAgICAgICAgICAgICAgICAgICAgICAgICAgICAgICAgIAogICAgICAgICAgICAgICAgICAgICAgICAgICAgICAgICAgICAgICAgICAgICAgICAgICAgICAgICAgICAgICAgICAgICAgICAgICAgICAgICAgICAgICAgICAgICAgICAgICAgCiAgICAgICAgICAgICAgICAgICAgICAgICAgICAgICAgICAgICAgICAgICAgICAgICAgICAgIDw/eHBhY2tldCBlbmQ9J3cnPz7/2wBDAAMCAgMCAgMDAwMEAwMEBQgFBQQEBQoHBwYIDAoMDAsKCwsNDhIQDQ4RDgsLEBYQERMUFRUVDA8XGBYUGBIUFRT/2wBDAQMEBAUEBQkFBQkUDQsNFBQUFBQUFBQUFBQUFBQUFBQUFBQUFBQUFBQUFBQUFBQUFBQUFBQUFBQUFBQUFBQUFBT/wAARCACvAOwDASIAAhEBAxEB/8QAHwAAAQUBAQEBAQEAAAAAAAAAAAECAwQFBgcICQoL/8QAtRAAAgEDAwIEAwUFBAQAAAF9AQIDAAQRBRIhMUEGE1FhByJxFDKBkaEII0KxwRVS0fAkM2JyggkKFhcYGRolJicoKSo0NTY3ODk6Q0RFRkdISUpTVFVWV1hZWmNkZWZnaGlqc3R1dnd4eXqDhIWGh4iJipKTlJWWl5iZmqKjpKWmp6ipqrKztLW2t7i5usLDxMXGx8jJytLT1NXW19jZ2uHi4+Tl5ufo6erx8vP09fb3+Pn6/8QAHwEAAwEBAQEBAQEBAQAAAAAAAAECAwQFBgcICQoL/8QAtREAAgECBAQDBAcFBAQAAQJ3AAECAxEEBSExBhJBUQdhcRMiMoEIFEKRobHBCSMzUvAVYnLRChYkNOEl8RcYGRomJygpKjU2Nzg5OkNERUZHSElKU1RVVldYWVpjZGVmZ2hpanN0dXZ3eHl6goOEhYaHiImKkpOUlZaXmJmaoqOkpaanqKmqsrO0tba3uLm6wsPExcbHyMnK0tPU1dbX2Nna4uPk5ebn6Onq8vP09fb3+Pn6/9oADAMBAAIRAxEAPwD9U6KKKACiiigAooooAKKKKACiiigAooqpqF5DYW8tzcSLDBCu95GbAAHXPtigCPVtUtNGs5ru9uI7a3iXc8kjY2ivlr4vft8aD4FkNt4f8Oap4waWT7PHc6SodUlPCgj0z1PavF/i98fp/jh4y1i80HTtS8Q+F/CErNH/AGPemCO5njBO5vmCuoP8J75r1P8AZr8F6ZrFjD8VdWt7WbxLrUIdljT91bKP4dmSN30rCtVVGPMzWnT9pLlOf8K+Jv2s/iMtxf3N94b8CaXI2bWCfTDdzlD03kSqM49q2F8VftP+CtSinubzQPHOmRczWun6WbW4kA67WeVlH4V2037QXg0+Ol8GprsVxrzDebWJgDEfRgOmfSvQ49yZAJ2nqucivDqY6rGV0tD2Y4GEloc98Gv2rNB+KXiCfw1qOn3HhLxXCP8AkE6k482UdymOor3dPu18QftieGU1Xwnb32g6feDxppzfatM1DS52t5IXUhiHdfvKQMFW7V7V+yH8eG+Onwn07VdQVYdegXytQgxgxyLwc++RXsYeuq0ObqeVWoujKx7vRTVIZQQcj2p1dSZzBRRRTAKKKKACiiigAooooAKKKKACiiigAooooAKKKKACiiigApjLzT6YetAhPusK+af25/jJZ/Dv4T3Wlwa5bWGu6w6WkFi7qJp42YB9gPJ47ivYvi78S9L+E/gnUvEWrXMFvBbRny/PfYHkx8qj6mvyE8brrf7QfjfTPEfim4cavq2rpFZw7jttLdiRsXA4z161y1sTCi0me1l+U4jMIzqUl7sFdnValq19a+C30HTJBpttb2skEa6biJpdynmTHU+/U19wfs76BNpXwE8O2EzP5r6eI3Ykh8sCCwIr448efAPRtNXW/DvgHRfEEvxA08KI766vZGtZc4J4d9ue3Ar7g+CWn6rpfwq0C01y2a01aG2VLmF+quByK8vG1eeKJwMHzu6Lvgz4c6J4L0Nbe20q3uLqNHkN3Mm+VjycBmUmtPQPEUGraOdR2tCkQO+MgBl25yTgDtVXx34Zv/Ffhm50/Tb9tNvJAAlwjFSv4jtWJ8K/hLD8NtM1FZ9TutTvdQP+ktNNJLHkjGUB6AjOa8q6ktXqes+aDtFHS6DrmneMdF/tXTkgvbdgyBjt6A/N1rif2c9a8M23xe8cQ6VcRWz3roY7bcACy/exiuA1vw1p/wAN9cn8Mazf6hpPgPWG22d5ptybf7K5OSryqwK5JOM14T8c/C7/AAP+KVvqHw+uroT6OFnSOWcyNcRuMybsk7yR3rvoVYUfiZnDBVsxn7KkryP1WUYwMYFCZ3Nn7teXfs5/GnTvjl8MtK8QWeY55E2XFvL99JBwc/jXqC/NtPSvoYy5ldbM+ZnCVObhLdEtLTFXinVZAtFFFABRRRQAUUUUAFFFFABRRRQAUUUUAFFFFABRRRQAVG33s4zUlQyEbuefb1oA/PP/AIKFeNH8b/EDw58O4XWTTI0/tK5J6+ZG3yj8jXzvr0d9b/YL7RljjvtHuVvLZH4V2UfcPqDXRfFq4uNS/aX+IM9xM8xtLs28I/hRCoz+tUVXb3yRxgV8BmeJl9Zuuh/VnBmS0P7D5Zx/ibn0d8Hv2stF8favY+H7PwxqEPjq4jEuof6IRFGo+8VbpivqFdxUEjkjJ6f0r8w/D/jVPhn8ZPCniJLyG1ae4TTrhJH27YXOSx9q/RfxtZ6l4k8LrceFNRiWUbbqK6jO9JkUZKg+p6Cu1SdWmqiW5+M5xgY5Tjp4aMuaPQ3L+8hsbdri4mEMK/KzN79APrXgHxm/aZtvAtzbSWmp6Xo00DbJoNddVMgP8S57V6v4V8UWHxC0L7Hdwrb6iy4n06b/AFiMOM47Y615Nr37PfjqbXbmWxt/COs6Ry0c/ia3aa6z6EjoKdKMb6nh1Jtr3Th9c+KMPxrm0uw1d9P8Xxqy3Vrp/hZxLJ8p3ZcDoBjNeSeP/Fz+PvitrOsr5i2C2yWSxt/CU4IPuO9evfGj4n6d+zX8NfL0/T9Bf4iagPItj4at/wDj3bjO49VGM186+Dbu3vtJ+0RSrcTyO09wdxbbKxy3J96jHqUaN0j9B8P6NOpmMpTmvdW3U9n/AGJfHFx8Nfj1c+GmlI0vxKpe1jP3VZBya/TNTujJHSvxsi1y58I/E7wRrcL7Zba62tjsGIWv2H0G4N1o9jMTuMkKtn6ivdyus6uHV+h8rxxl8MDm0/ZrSWpor90UtFFeufnwUUUUAFFFFABRRRQAUUUUAFFFFABRRRQAUUUUAFFFFABUMxPQVNUT/eJHUDigNz8h/iZMiftHfFBGZQ328N83pivM9c+ItzqF1Lp3huEtcR5Wae6H7tPoa+g/2yPAY8A/tJ2+pSIYdL8QW0jy3BHyNKDgKT618uW4fw/4k1rReIfPY3MRznivAwWBpYrM3GvsfsWZcSY/L+E6dXLnZr3X5DZtF0iOGT+2LmTWryeNlxIVKR5HO0npXsn7Of7SQ+Euh3uj+L/E+r3OmW+4aTbQR70gUL8qEqp4z614PGu1mdjudjgGlkzcQyInRflb8q/QK+AoSp+zhCyR/NlHNMV7d160223rc9b8QeMvH3jrUR4z8Pa+/hrXZiSpgKFZEB435XGa3rj9pTWH8F3WmeI/HfiDTfFaARBrJQYS7cA/MuMH2rzTwP46EIh0GK2nu9VACwRQxsw256tjoK9r+E/wYg1Lxpd2Pjeezt9Z1Y79Pjt3zD5QHLNlThhXwNPC4v2slKFoo/oDMcTw5TwOHqUp/vZJXSZ89a94Jm8L2M3jLVtRuta8SSfNJNcNhJFY45GOuKp+H746L4r0mbRyUXUubmy/gHfcK9k+P/wJ0v4e2niFLTxPq2sQwKr28N3cq0TsTyo2gcDtXlnwx0gazr321xufTl+UZOBke9elUpyoZfU+tNO+x42AxOGzPiXCrJIuCXxedtzvNeiku/E/hK0iHmTTXsYSP1+cE1+yvhmLyfD+nx4xtgQY9OK/LH9nfwv/AMLG/aS8NW6Q/aLPQzJNd+24ZX+Vfq0iqkSKv3QMCvPymDjh031PU4+xUcRm7jB35UkSr3pV70H7tNj+7+Ne2fmo9elLUcf3mqSgAooooAKKKKACiiigAooooAKKKKACiiigAooooAKY33qfTW60AfPH7aXwCT44/C24jtC0etaW4vrWSJQWdk58s98Gvyn1rUBeanBqt1DJYavp6GzvLSYEMGzgA59a/dpxuOMZHv0r88P+Cj37Mvh3RfD83xZ0u4uLDU7S5i+0WMO3yLos4G6T5ScjPFZRop14VU7NHrU8xlTwFfBTV4TX4nw9fH7PcTBwqBfnbPb2qhperaYmianJJeW8W6UY3soP61p6lKk+oyySx+YWAYo3Qg/gK+mv+Cd/wy8EeOPFmu2niPw3puptuLQx3URcAZ/Kvra9acI8x+W4XDwrP2bZ8r6Tq2q6TrFt4h8MrdTX1uPLDWoDRyKTypIr1LWv2kFvNDgvPE/hu50DVrFl8m48tsMueeR7V+tmmfAf4eaRGUsfB2j2adlitwv6CuP+Nvwb8Ev8N9YVfC2ms3lE4Nvu5AJ/CvHli3UXKloz6Snl8YNOT1R+R/xE+NcPxS1BJtPt7mSxgixHDCrO8hx1x2Het79nnwd468fxw6Z4Z0KGxvr8lRfa6jx274P8LgGuh/Yxs9Fvv2prOx1Gwtxp4tb1fJlzs+UkADtX3b8L9F0jUPB2kRQXdqkumX87RQxuvyjecDArkx0I14xpT2PeyTGVcrrSxmGdps4n9ifwPrPwI+JXiTwp4/tbEeJ78JPb3unBngnT+4GYA7gPavueEkgE8+4r5u+N2qD/AIWb8HryxKm8bUJI5NrENt2AHr9a+lY/u1zwhGEVGK0Q61aeIqOtUd5MdRTW+7TR938aswJKKQd6WgAooooAKKKKACiiigAooooAKKKKACiiigAooooAKKKKAGt0ryP9pr4Iw/tBfCfVPB0+oTaYt0ySLcQYLqyHIxkEDkdq9epkg70B6n4l/Fr9lX4s/A64UalobeKtLYlYrrSvMmuNvYuAo5/CvTf+CcuoX+nftMSWV/p1/oyyaUzeXqNuYCx3e/Wv1haJZfmZVb6rmvmf9sDw6vhXS9G8daVbrDqOnahbxSSwxAP5LyAPlhzjB711PEzlDlOCODoxqe1irM+nIvukelcv8SrVbrwbqiMoYNA4Ibp0rU0HWrTVNLtJ4bqGRJIlYYkXPI9qq+M1S48N6lEJY1kaBwm5x/dxkZrlV0z0PU/Ib4C/sy+L/Fnxq0prrVJPC9hfXV09vqOn7WnZQ5JQhlOAR6V93+L/ANhbTdRi06Tw74t1fwze2zFpZLPYVuieu8Fe/wDsla83/Zfutc8deOvCYstBjj0jwrNeQ3upPMN7M7EABR1r7wRty5xirk22RGKgml1Pn/4TfswT+CvEUWu+JPGWp+MruA5sotQSNY7LjBCbFB/Mn619BRnK9CPrSD71SVBQlN9frSt92mj7v40AOH3jTqaPvGnUAFFFFABRRRQAUUUUAFFFZuva9p/hnTZtR1S6jtLKEZeaU4C0AaVFeYL+0t8MCuR400sj/rtRJ+0x8MI03t400vA/6bUAen0VzfhD4geHvH1q9z4f1W21WFDgyW7ZA/GujFAC0UUUAFFFFABScUtNb7tADW+8D6VjeKPDOn+LdHutL1O3FzZ3ClWjbJHTrx0rYwGXnqK8f+Pnxq134O2MN/pfw/1PxxaFGa4/s24iiNuoGckP97PtQNHkml/sLaz4XuWPhn4weItAsi7OtmII7lFyc7Qz8qBVvW/2OfGviRRBqfxw8QT2jDbJDBawoWXuOFNeB6n/AMFpfC1ustvH8OdbiuVyrLPcw8MOCCARX3H+zz8WB8cPhB4f8aJZPp8erQiYW8hBKc4xwTQNlj4K/B/Sfgj4LtvD2mSGdYz89xKBvkJ6k4A5r0JcbeOntS4C8DpSjvQSNH3qkr56/a6/a60b9k3wnYavqWk3GtTX0xgit7WVUZTjqd1eQ/sr/wDBTDw7+0N47t/B8+hX2jatdB2gkmKlHUckfLxmgD7jprUq/dGOlLQA0feNOoooAKKKKACiiigAooooAKxPF3hPS/G2g3ejazare6ddLtmhYkBl/CtuigD8df8Agp5+zV4P/Zz0Xwrq3gKyk0E6tdTRTLbTvhgqg/1r56/YR8E6b8bv2kNA8K+MjPq2g3EUsk1pJM21yq5XP419v/8ABbL/AJEP4d/9hG4/9FrXyB/wS0/5PE8M/wDXrcf+gigD9tvhd8HvCnwd0Y6T4S0ldJ08ceSrEj26126nIqLdtGSPpnpXxv8Atgf8FCvDv7P7TaDoQ/trxTMhEcUQDLG3YvyCB2oA+zWYA80qkEcV8AfCO7/ai/aA+GknjhvGeheFZpEZ7PRH0JpRJjlcy+fxkd8V4n4F/wCCpXxD+GHxLvvCnxYsLC9g0+5NtNLpdsY2RgcZOWPFAH62UV5NrPxC1bxx8J4/EnwxltdR1G4hEtvHIylCxGQjcda/Nj4q/wDBTH9o34PeIJNE8S+HNB0rUVJI823LhvpgigD9gKa2M81+ZX7Pv/BTLxZ4k8CX114k01fFfiy4uDb2GieHrbbKCfuOwJOF/GvMfjn+25+1d8N7iO+8Q+H9M8O6fL80KtbeYevRmSQc/UUAfsH9BWfq0aSaZdrIgZDEwKlcjkV+f37BP/BRrUvjh4kk8H/ENLO21crvtL6zjEcUg6eWVyTu/Gv0B1Bg2l3ZHQxPjr/dNA0fzpfteaba6V8ePEsFtEsMazE7VGBknmv2s/4J5kt+yJ8O8/8APkv8zX4u/tmf8nA+JP8ArpX7O/8ABP8AWVv2PPAAicRSnTgI3cbgG55xkZx9aBs+laP4vwr8z/2nP2xP2h/2cfiKvhqN/DPiqO8kxaPb6c6SBWPyq6q5wRnGT1r2/wDZo8dftRfELxHBf/ELSfD/AIa8JCFiYY4S1xcMR8rBg/yj2xzTRJL+39+x/f8A7T3g2ybQr42utadI0qQvyk424C5/hr5//YT/AOCcfjH4Q/Eyy8c+M7ldOvNNLCCxtyrrJuGOT1rQ/ae/bG/aZ/Zv1S6uNU8LaGnhiW6aGw1JkZvMX+HI3A5rl/2Q/wDgpB8Wfjt+0J4d8I66NFt9HvPMMyWlkVkOBkYYsTVAfqorfKMnn6Yo614n+054i+LHhnwjDe/CfSbHWNZST99a3q5DR98dOa/M/wAV/wDBWP46+GdYvtE1HSfD1hqllM0FxG1s7NG68FTg460rDP2czShh61+c/wANf+Cgvj7x98JEtPD/AIet/GXxOdsldOjEdoinoX3kdO+DXzt8VP8AgoH+0/8ACXxNDbeMLHQ9Jvm/eJbyWRcbc9OJCCKLAftFuFJuFfJX7Cn7acH7UPhdrXWFtrHxhaDfc2tvwCoON4XsDXvvxb+Kmh/BnwLqHirxFcJb2FmhbPA3HHCjPc9KQjuc5pGbB64r8tfh7+3X8Z/2uPjHP4Q+Gv8AZPhfRFBlN1qNl9pmhizjcQsig/nXt/xMsP2p/gf4fk1nSPGOhfEmKFS9xYf2C1nIqjnKv5sme/pSA+2ww9aXOa+K/wDgnr+014z/AGjv+E0vPF/2eF7G+8m3tYYiGiXaCQSWPf2r7Tjzt5oAhvLyCxhaa4lWKJRyzHAqvpusWWsRM9ncJcop5KHIr88f+CvXxe8U+AfDfhfSPD2rXGkQ6k8i3L2rlHcAA4DA5FfMn/BMv4uePtT/AGirDSW8QapqmmzW7vLZ3NzJLFx/EQSaAPof/gtl/wAiH8PP+wjcf+i1r5B/4JZ/8njeGv8Ar1uP/QRX1p/wWpvYpvBXw+tvNU3KX07NF6ZjWvmv/glL4N1TVv2mtM8QW9qz6ZpsEsdzOPuxs64UUAfsb8ePGV18PfhB4s8SWJU3enafJcRKxwCwHAzX85Ov+Mrrxp8RZ/E2qbprm9vxdTKDuzlwSo9eK/op/aQ8MXvjL4H+M9G06Lzb6+06SCFPViK/nKm02fwd4yNnqKeXcadehJ0IyNyONwP5UAfs54J/4KE+F/C/hHSNPg+F/jpYYbVE8yDSWKNhQMqemPevzQ+Pvw48Z/Ff4veJfFmkeDtTtdN1S6aeOK6QB8Hn5h1Br9q/2ZfGPhr4wfBrw9rmnWFlJb+QkLMIV+8ox3r1N/D+jQQu8un2aRqMuxiUADqSaAPlH/glzousaD+zHbadrlrcWl3FfTDyrlSGCZ7A9q+Mv+CzEaR/GDwtsjjjzpzZ29T8/ev1g8C+O/Cni77bB4avbW4WzlaGZLPGAw4PSvyh/wCCzhz8YPCv/YOYd/7/AL0Aelf8Ee/B2j3Gj6vrD2MUmoNujaSVVPAPHWvoX/gqNp9s37JfiSZreLzI3i2yeWMr8w714p/wR1/5EnU/95/517t/wVG/5NB8T/78X/oYoA/G/wDZSuprT9ojwC0MrRM2qwgsh4IJOc1/RrfMW0a4/wCuDf8AoBr+cT9lf/k4jwF/2F4f5mv6PL7/AJA8/wD1wP8A6DQM/ne/bK/5OA8SZ5/e/j+FfoX8Nf21PCn7M/7D3gCL7Smp+JJtP8qK1tyCYZOcFx1AzX56/tl8ftAeJCDg+bnI5x/hX1LY/sB6F8SP2J9A8e+FLGY+NWsPtMqNcswuGzztXpwBQUe7f8E9/id4H/aF8Uar4p8SWyzfEoOcfa5jICnX90h6cV+iEaLGgVQFXsoAGK/m0+Bvxh8Qfs5/FSy8RaVtgvbKbybm3lj3ZTcA649eDX9A3wE+M+kfHX4b6T4p0qVTHdQh3i/ijb0NNAfM/wDwViRH+A9oXRX23Jxnt8pr84/+Caf/ACd94P8ApN/6DX6O/wDBV35vgTbj0nb/ANBNfnH/AME0zn9r3wd/21/9BqiWfv03OQAT6+lfzmftiKF/aY8eqgUD+05Onrmv6ND941/OZ+2J/wAnOePP+wo/86QH6v8A/BKvw3ptn+zDpl7FaRC8uLiRpJtuSSWJrxv/AILEeHLBvD+k6qbdBeqyIsm3kAk5r3r/AIJbf8mo6J/12k/ma8V/4LEf8iLpn/XWP+tMZ8/f8EhZmg+OmrMr7d1oB6Z5r7c/4KmeE9Y8Rfs26i+lwyXSwTRtLbxqzkqDywA6V8P/APBIf/kuGrf9ei/+hV+mX7Qf7SHh34S+MPC3hTxJprXdj4ll+ymcx7o4iT/FQB+F/wCz7+0D4n/Zt8cnxN4aW2a9EZgkhukypX0+tfp98N/+Cu3w68SaPpeneL9J1C11a4RYruaOHNurHrz2FaHxy/4JS/D/AOKctxrPgzUP+EZv9QbzzdNvniyeciPeo5r8+f2mv2DfHf7N8b31z/xPNBj4k1SCDyUU+672xQB+xX7N/gn4b2t/4h8YfDy8t5rbxDMt1cRWk25UbHJI9T3r3uP7gwc1+Nf/AASC+I2uwfGG+8IJdOdCmtXumhA+VXGBnp3r9kkwF4GBSYM+bf23P2Q7L9qzwNFZpdrYa/p+ZNPunzsUnG4EAjOR618jfsxR+Lv2LND1zR7v4Pa5rPiBpGFrq1vaxSpcY6bWDkopr9TmXNQSWsdxxJEkgH99c1JJ+M3jv9n/APaG/bi+MQ1HxP4eu/BmkyqfLe6JltbcAcfIX6kda/Rr9j39kvR/2V/Ao0yCSPUdauTm81FU2iYjuBk4FfQccKxqFQbV7DpT8EUARMokUqdpVhg8ZFfnZ+2d/wAExY/ir4gvfGHga8i0vUpEMlxYfZy32lye3zAA1+jNLQB+JvwL0f8Aas/ZP1Ka10nwTqmo6Wr4XT55B5G7P3gAT1r6ftbj9rL9qy1k0XV7K0+DWjADzr2OFpJ7hW6on90Y/i9a/Qya3ilbMkav6ZXNSqAFAAwPYYoA8P8Ah78IrP8AZf8Ag7Pp3g3TJNX1aONppGmYtLeXB5JZj1JNfmV+1R8Hf2mf2qPGNrr2s/C2bThao0MEdtKmNuSecsDX7T0UAfk5+w34L/aK/Zt8S2Wl3vwxuJfDWpTiK6ud0bPaqeTJwTxXtf8AwUEX4yfFjwTc/D/wj8PbjV9LvtrzagjKnl7TkfeYdcV98UUAfgZ8O/2Kf2i/hx440bxNZ/Da6uLnSblbmOKWaIqzL0U4Y9c1+qNx8YvjG3wOuNWk+Gch8ZiHYNHicYZzgYBO3pX1Dimt3oGfgj8R/wBjX9oz4meLr/xDqnw7u47u8cyMkEkZCjrj7559a+//ANgnUPjh4M0/SPhn4++HP9ieFdPs2ih1Xchbj+FwCeSDX3cvSloKPyH/AG9P+CfPjTV/ixJ4h+GvhxtW0/Uv9ba2gVTC4GS7HcBzR+yX4f8A2qv2Wlu7Gy+F9xq+j3bqZorq5TMSj+5h6/XiimgPy+/bKb9on9pPwrZeG9O+Fl5Y2ETiWa4aRFYtj7vLe9fN3wJ/ZZ/aT+AvxM0rxno/w0lub+xLFILqaPa2Rg9GPav3SprdaoTPmDUvjZ8bbP4G6X4ig+Fkt347ml8q58PpKqiIZ++XYDC1+XHxQ/Yz/aN+J/j/AFzxXf8Aw2u7W71K5a4kiiniKx552ghhnFfvOvSlpXJPz4/4J16f8b/g3pcPgDxn4AmsPDSStLFqMkoLKzckHBIxXnn7fHgn4+/tD+Lr7w7ofw2uJfDGnzjyNRVkU3IHQruI4r9SqKY0fif+zX8C/wBpr9mHxhN4k0X4WSag7xiOa3uJocsueMEOcmvr39t74IePv2kPDHw+j0vRrjT9WujF9ukXA/s1m5LHLc7T/dOa+86a3WlzDufAvw3+IHx+/ZZnHg/xb4MvfiR4XsYwsHiDRUzK4HYpuJ46dea4v9prx78Zf2uNItvAvhj4V6xofh2+dUvNR1a3MTRc5BCEjcOK/SySNZFw6hh6MMimw28NuP3car7Ku0flSbBnyR+w3+wzb/ss6XdX2rahba14iuG3faooPK8pCPufebOK+u0+7/n/AAp34YopEj6KKKACiiigAooooAKKKKACiiigAooooAKa33adTW+7QA1elOWmr0py0AOooooAKKKKACiiigAooooAKKKKACiiigAooooA/9k=" vertex="1" parent="1">
          <mxGeometry x="320" y="195" width="114.63" height="85" as="geometry" />
        </mxCell>
        <mxCell id="DDTzbtTB0viqOzbG85x1-23" value="" style="image;aspect=fixed;perimeter=ellipsePerimeter;html=1;align=center;shadow=0;dashed=0;fontColor=#4277BB;labelBackgroundColor=default;fontSize=12;spacingTop=3;image=img/lib/ibm/vpc/PublicGateway.svg;" vertex="1" parent="1">
          <mxGeometry x="480" y="310" width="60" height="60" as="geometry" />
        </mxCell>
        <mxCell id="DDTzbtTB0viqOzbG85x1-24" style="edgeStyle=orthogonalEdgeStyle;rounded=0;orthogonalLoop=1;jettySize=auto;html=1;entryX=-0.012;entryY=0.733;entryDx=0;entryDy=0;entryPerimeter=0;" edge="1" parent="1" source="DDTzbtTB0viqOzbG85x1-23" target="DDTzbtTB0viqOzbG85x1-16">
          <mxGeometry relative="1" as="geometry" />
        </mxCell>
        <mxCell id="DDTzbtTB0viqOzbG85x1-26" style="edgeStyle=orthogonalEdgeStyle;rounded=0;orthogonalLoop=1;jettySize=auto;html=1;entryX=0.5;entryY=1;entryDx=0;entryDy=0;" edge="1" parent="1" source="DDTzbtTB0viqOzbG85x1-25" target="DDTzbtTB0viqOzbG85x1-23">
          <mxGeometry relative="1" as="geometry" />
        </mxCell>
        <mxCell id="DDTzbtTB0viqOzbG85x1-25" value="" style="verticalLabelPosition=bottom;html=1;verticalAlign=top;align=center;strokeColor=none;fillColor=#00BEF2;shape=mxgraph.azure.user;" vertex="1" parent="1">
          <mxGeometry x="433" y="460" width="47.5" height="50" as="geometry" />
        </mxCell>
      </root>
    </mxGraphModel>
  </diagram>
</mxfile>
